<?xml version="1.0" encoding="UTF-8"?>
<svg width="600" height="400" viewBox="0 0 600 400" fill="none" xmlns="http://www.w3.org/2000/svg">
  <!-- Background elements -->
  <path d="M0 350 Q300 300 600 350" stroke="#16A34A" stroke-width="2" opacity="0.1"/>
  <path d="M0 360 Q300 310 600 360" stroke="#16A34A" stroke-width="2" opacity="0.1"/>
  
  <!-- Sun -->
  <circle cx="500" cy="80" r="40" fill="#16A34A" opacity="0.1"/>
  <circle cx="500" cy="80" r="30" fill="#16A34A" opacity="0.15"/>
  
  <!-- Crops Group 1 -->
  <g transform="translate(150, 200)">
    <!-- Wheat stalks -->
    <g transform="translate(0, 0)">
      <path d="M0 0 C10 -20 0 -40 0 -60" stroke="#16A34A" stroke-width="2"/>
      <path d="M0 -30 L-10 -40" stroke="#16A34A" stroke-width="2"/>
      <path d="M0 -40 L10 -50" stroke="#16A34A" stroke-width="2"/>
      <path d="M0 -20 L-8 -30" stroke="#16A34A" stroke-width="2"/>
      <path d="M0 -10 L8 -20" stroke="#16A34A" stroke-width="2"/>
    </g>
    <g transform="translate(20, 10)">
      <path d="M0 0 C10 -20 0 -40 0 -60" stroke="#16A34A" stroke-width="2"/>
      <path d="M0 -30 L-10 -40" stroke="#16A34A" stroke-width="2"/>
      <path d="M0 -40 L10 -50" stroke="#16A34A" stroke-width="2"/>
    </g>
  </g>
  
  <!-- Crops Group 2 -->
  <g transform="translate(400, 220)">
    <!-- Corn stalks -->
    <g>
      <path d="M0 0 L0 -80" stroke="#16A34A" stroke-width="3"/>
      <path d="M0 -40 L15 -30" stroke="#16A34A" stroke-width="2"/>
      <path d="M0 -50 L-15 -40" stroke="#16A34A" stroke-width="2"/>
      <path d="M0 -60 L20 -50" stroke="#16A34A" stroke-width="2"/>
      <ellipse cx="20" cy="-50" rx="8" ry="4" fill="#16A34A" opacity="0.6"/>
    </g>
    <g transform="translate(-20, 10)">
      <path d="M0 0 L0 -70" stroke="#16A34A" stroke-width="3"/>
      <path d="M0 -35 L15 -25" stroke="#16A34A" stroke-width="2"/>
      <path d="M0 -45 L-15 -35" stroke="#16A34A" stroke-width="2"/>
    </g>
  </g>

  <!-- Farmer -->
  <g transform="translate(280, 180)">
    <!-- Body -->
    <circle cx="0" cy="0" r="20" fill="#16A34A"/>
    <path d="M0 20 L0 60" stroke="#16A34A" stroke-width="8"/>
    <!-- Arms -->
    <path d="M0 30 L-20 50" stroke="#16A34A" stroke-width="6"/>
    <path d="M0 30 L20 50" stroke="#16A34A" stroke-width="6"/>
    <!-- Legs -->
    <path d="M0 60 L-15 90" stroke="#16A34A" stroke-width="6"/>
    <path d="M0 60 L15 90" stroke="#16A34A" stroke-width="6"/>
    <!-- Hat -->
    <path d="M-20 -5 L20 -5 L10 -15 L-10 -15 Z" fill="#16A34A"/>
    <!-- Tool -->
    <path d="M20 50 L40 30" stroke="#16A34A" stroke-width="3"/>
    <path d="M40 30 L50 40" stroke="#16A34A" stroke-width="3"/>
  </g>

  <!-- Small plants scattered around -->
  <g>
    <g transform="translate(100, 300)">
      <path d="M0 0 C5 -10 0 -20 0 -30" stroke="#16A34A" stroke-width="2"/>
      <path d="M0 -15 L-5 -20" stroke="#16A34A" stroke-width="2"/>
      <path d="M0 -15 L5 -20" stroke="#16A34A" stroke-width="2"/>
    </g>
    <g transform="translate(500, 320)">
      <path d="M0 0 C5 -10 0 -20 0 -30" stroke="#16A34A" stroke-width="2"/>
      <path d="M0 -15 L-5 -20" stroke="#16A34A" stroke-width="2"/>
      <path d="M0 -15 L5 -20" stroke="#16A34A" stroke-width="2"/>
    </g>
  </g>

  <!-- Clouds -->
  <g opacity="0.1">
    <path d="M50 100 Q70 80 90 100 Q110 80 130 100 Q110 120 90 100 Q70 120 50 100" fill="#16A34A"/>
    <path d="M450 150 Q470 130 490 150 Q510 130 530 150 Q510 170 490 150 Q470 170 450 150" fill="#16A34A"/>
  </g>
</svg> 